# xmcd
#
# Track frame offsets:
#	150
#	17998
#	35788
#	52975
#	63680
#	77614
#	92316
#	108043
#	125467
#	144031
#	162392
#	182094
#	195966
#	212691
#	228830
#
# Disc length: 3259
#
# Revision: 2
# Processed by: cddbd v1.5.1PL0 Copyright (c) Steve Scherf et al.
# Submitted via: CDex 1.30Release
# Normalized: r1:DSETVAR1,TDELIM( - )
#
DISCID=ba0cb90f
DTITLE=Various Artist - CDX Volume 296 - July 2002
DYEAR=2002
DGENRE=Country
TTITLE0=Dolly Parton - Dagger Through The Heart
TTITLE1=Radney Foster - Everyday Angel (Radio Edit)
TTITLE2=Little Big Town - Everything Changes
TTITLE3=Deryl Dodd - Honky Tonk Champagne
TTITLE4=Aaron Tippin - If Her Lovin' Don't Kill Me
TTITLE5=Carolyn Dawn Johnson - One Day Closer To You
TTITLE6=Jack Ingram - One Thing
TTITLE7=Travis Tritt - Strong Enough To Be Your Man
TTITLE8=Charlie Daniels Band - The Last Fallen Hero
TTITLE9=Rodney Redman - These Days
TTITLE10=Steve Azar - Waitin' On Joe
TTITLE11=Jubal Foster - If It Ain't Love
TTITLE12=Vince Hatfield - I Wanna Do It Again
TTITLE13=Billy Don Burns - Lonesome 77203 (Radio Edit)
TTITLE14=Billy Yates - Daddy Had A Cardiac and Mama's Got A Cadillac
EXTD=YEAR: 2002 ID3G:   2
EXTT0=
EXTT1=
EXTT2=
EXTT3=
EXTT4=
EXTT5=
EXTT6=
EXTT7=
EXTT8=
EXTT9=
EXTT10=
EXTT11=
EXTT12=
EXTT13=
EXTT14=
PLAYORDER=
